<svg version="1.2" xmlns="http://www.w3.org/2000/svg" viewBox="0 0 55 86" width="55" height="55">
	<title>spite_moon-svg</title>
	<defs>
		<linearGradient id="g1" x2="1" gradientUnits="userSpaceOnUse" gradientTransform="matrix(0,71.525,-48.033,0,28.964,5.42)">
			<stop offset="0" stop-color="#b4b4b4" stop-opacity="1"/>
			<stop offset="1" stop-color="#f0f0f0" stop-opacity="0"/>
		</linearGradient>
	</defs>
	<style>
		.s0 { fill: #b4b4b4;stroke: #646464;stroke-width: .8 } 
		.s1 { fill: #f0f0f0;stroke: #c8c8c8;stroke-width: .8 } 
		.s2 { opacity: .8;fill: url(#g1) } 
	</style>
	<g id="layer2">
		<g id="g2094">
			<path id="path5653" fill-rule="evenodd" class="s0" d="m29.9 3.8c20.3 7.1 31 29.4 23.9 49.7-7.1 20.3-29.4 31-49.7 23.9-3-1.1-15.7-4.2-8.2-4.1 7.5 0.1 25.8-11.6 31.9-28.9 6.1-17.4-0.9-38-6.8-42.6-5.9-4.6 6 1 8.9 2z"/>
			<path id="path5655" fill-rule="evenodd" class="s1" d="m29.2 3.8c20.5 6.8 31.5 28.9 24.7 49.3-6.8 20.4-28.8 31.5-49.2 24.7-3-1-15.8-3.9-8.4-3.9 7.5-0.1 25.7-12.1 31.5-29.5 5.8-17.4-1.6-37.9-7.6-42.4-5.9-4.6 6.1 0.8 9 1.8z"/>
			<path id="path5657" fill-rule="evenodd" class="s2" d="m28.2 7.6c17.6 4.2 28.3 22.9 23.7 41.8-4.5 19-22.4 30.9-40.1 26.7-2.5-0.6-10.8 0.6-4.5-0.1 6.3-0.8 20.1-15.3 24-31.5 3.8-16.1-1.9-34-7.2-37.5-5.3-3.6 1.5 0 4.1 0.6z"/>
		</g>
	</g>
</svg>